<?xml version="1.0" standalone="no"?>
<!DOCTYPE svg PUBLIC "-//W3C//DTD SVG 20010904//EN"
 "http://www.w3.org/TR/2001/REC-SVG-20010904/DTD/svg10.dtd">
<svg version="1.0" xmlns="http://www.w3.org/2000/svg"
 width="260.000000pt" height="260.000000pt" viewBox="0 0 260.000000 260.000000"
 preserveAspectRatio="xMidYMid meet">
<metadata>
Created by potrace 1.14, written by Peter Selinger 2001-2017
</metadata>
<g transform="translate(0.000000,260.000000) scale(0.100000,-0.100000)"
fill="#000000" stroke="none">
<path d="M1745 2575 c-60 -14 -123 -26 -140 -29 -16 -2 -86 -16 -155 -30 -69
-14 -138 -28 -155 -30 -122 -22 -330 -67 -336 -73 -6 -7 -14 -80 -23 -228 -1
-24 -12 -25 -91 -9 -33 7 -76 15 -95 18 -19 3 -71 12 -115 20 -44 9 -96 18
-115 21 -19 3 -71 12 -115 20 -134 24 -139 25 -175 31 -19 3 -64 12 -101 18
-36 7 -75 9 -86 5 -28 -10 -46 -45 -39 -72 3 -12 109 -204 237 -427 227 -398
253 -445 299 -525 12 -22 167 -294 345 -605 177 -311 330 -580 339 -598 25
-49 52 -72 84 -72 33 0 49 15 84 80 14 25 67 119 118 210 51 91 106 190 123
220 17 30 48 87 70 125 22 39 52 93 68 122 15 28 69 125 120 215 115 204 119
211 156 278 80 145 98 177 113 205 10 17 34 59 54 95 20 36 41 72 46 80 6 8
13 22 17 30 4 8 73 134 155 279 81 145 151 274 154 287 4 15 0 34 -11 50 -16
25 -20 26 -79 21 -33 -3 -72 -8 -86 -11 -21 -5 -187 -35 -270 -50 -14 -2 -43
-7 -65 -11 -22 -4 -47 -9 -55 -10 -8 -2 -57 -11 -107 -21 -51 -9 -95 -15 -98
-12 -4 4 16 80 82 303 3 11 6 38 7 60 1 36 -2 40 -24 42 -14 1 -74 -9 -135
-22z"/>
</g>
</svg>
